<svg xmlns="http://www.w3.org/2000/svg" width="140" height="32" fill="none"><path fill="#fff" d="M0 0v2.821h8.271L0 11.098v4.096L15.193 0H0ZM20.38 0 0 20.383v4.384L24.76 0h-4.38ZM0 29.796V32h2.206L32 2.196V0h-2.214L0 29.796ZM7.23 32 32 7.227v4.38L11.615 32H7.23ZM16.8 32 32 16.798v4.09l-8.28 8.288L32 29.17 31.987 32H16.801ZM48 25.217v-1.594l7.495-9.101h-7.147v-2.469h11.001v1.852l-7.334 8.973h7.548v2.34H48ZM68.665 25.5c-2.463 0-4.283-.591-5.434-1.774-1.151-1.183-1.713-2.88-1.713-5.09 0-2.212.588-3.909 1.74-5.091 1.15-1.183 2.97-1.774 5.407-1.774 2.462 0 4.282.591 5.433 1.774 1.151 1.182 1.74 2.88 1.74 5.09 0 2.211-.562 3.908-1.713 5.091-1.178 1.183-2.998 1.774-5.46 1.774Zm0-2.571c1.445 0 2.462-.334 3.078-1.003.615-.668.91-1.774.91-3.29 0-1.518-.295-2.623-.91-3.266-.616-.668-1.633-1.003-3.078-1.003-1.42 0-2.436.335-3.052 1.003-.616.669-.91 1.748-.91 3.265 0 1.517.294 2.623.91 3.291.589.669 1.606 1.003 3.052 1.003ZM78.89 25.217V12.054h2.89l.134 1.388c.616-.463 1.365-.849 2.222-1.183.857-.334 1.82-.488 2.837-.488 1.767 0 3.052.385 3.882 1.182.803.797 1.204 2.032 1.204 3.728v8.536h-3.132v-8.381c0-1.029-.214-1.723-.642-2.134-.428-.412-1.258-.617-2.436-.617-.723 0-1.419.128-2.088.411-.696.283-1.258.643-1.713 1.08v9.641H78.89ZM100.973 25.5c-1.231 0-2.329-.206-3.266-.617a4.466 4.466 0 0 1-2.194-2.031c-.509-.951-.777-2.211-.777-3.805 0-1.569.268-2.906.83-3.985.562-1.08 1.338-1.903 2.329-2.469.99-.565 2.115-.822 3.373-.822a8.43 8.43 0 0 1 2.221.282 7.14 7.14 0 0 1 1.874.849V6.5h3.159v18.717h-2.677l-.214-1.311a5.98 5.98 0 0 1-2.035 1.183c-.749.282-1.632.411-2.623.411Zm.83-2.288c1.419 0 2.57-.463 3.533-1.389v-6.582c-.91-.77-2.034-1.156-3.399-1.156-1.339 0-2.329.437-2.998 1.285-.67.848-1.017 2.083-1.017 3.728 0 1.568.32 2.648.937 3.24.615.59 1.606.874 2.944.874ZM116.257 25.5a6.77 6.77 0 0 1-2.409-.437c-.75-.309-1.338-.746-1.767-1.337-.455-.591-.669-1.337-.669-2.237 0-1.26.455-2.262 1.338-3.034.884-.771 2.276-1.157 4.149-1.157h4.39v-.591c0-.617-.107-1.131-.294-1.491-.214-.36-.562-.643-1.098-.797-.535-.155-1.311-.257-2.328-.257-1.606 0-3.132.231-4.551.694v-2.237a12.582 12.582 0 0 1 2.249-.591 16.745 16.745 0 0 1 2.864-.232c2.007 0 3.533.386 4.577 1.157 1.044.772 1.579 2.057 1.579 3.805v8.46h-2.676l-.215-1.338a5.55 5.55 0 0 1-2.061 1.183c-.803.283-1.847.437-3.078.437Zm.857-2.16c.936 0 1.766-.154 2.462-.462.696-.309 1.285-.72 1.713-1.235V19.33h-4.336c-.937 0-1.606.18-2.008.515-.401.334-.615.874-.615 1.568 0 .694.241 1.183.722 1.466.482.308 1.178.462 2.062.462ZM126.135 25.217l5.219-6.685-5.032-6.479h3.373l3.346 4.397 3.346-4.397h3.372l-4.952 6.48L140 25.216h-3.399l-3.533-4.576-3.534 4.576h-3.399Z"/></svg>